C:\Users\movea\Dropbox\PhDWork\ExperimentalData\subject1\100\P1S100W01_filtered35.mot
nRows=10
nColumns=28

name C:\Users\movea\Dropbox\PhDWork\ExperimentalData\subject1\100\P1S100W01_filtered35.mot
datacolumns 28
datarows 10
range 0.6150000000 0.6240000000
endheader
time	ground_force_1_vx	ground_force_1_vy	ground_force_1_vz	ground_force_1_px	ground_force_1_py	ground_force_1_pz	ground_moment_1_mx	ground_moment_1_my	ground_moment_1_mz	ground_force_2_vx	ground_force_2_vy	ground_force_2_vz	ground_force_2_px	ground_force_2_py	ground_force_2_pz	ground_moment_2_mx	ground_moment_2_my	ground_moment_2_mz	ground_force_3_vx	ground_force_3_vy	ground_force_3_vz	ground_force_3_px	ground_force_3_py	ground_force_3_pz	ground_moment_3_mx	ground_moment_3_my	ground_moment_3_mz
        0.6150000000	      -26.0279514954	      796.4908157467	      111.8936785225	        0.2000000000	        0.0000000000	       -0.9030000000	      -49.5843763585	      -12.4911161096	       48.3843711783	        0.0447696042	        0.0000000000	       -0.5282473094	        0.2000000000	        0.0000000000	       -0.3000000000	       -0.0330655493	       -0.0454976456	        0.0455480081	       -0.0000000000	        0.0000000000	        0.0000000000	        0.2000000000	       -0.0000000000	        0.3030000000	       -0.0000000000	       -0.0000000000	        0.0000000000	
        0.6160000000	      -25.9322530869	      796.3043924419	      112.9516878160	        0.2000000000	        0.0000000000	       -0.9030000000	      -49.8015440410	      -12.5362002447	       48.3530389768	        0.0611343312	        0.0000000000	       -0.6283467228	        0.2000000000	        0.0000000000	       -0.3000000000	       -0.0385768134	       -0.0517424506	        0.0525747352	       -0.0000000000	        0.0000000000	        0.0000000000	        0.2000000000	       -0.0000000000	        0.3030000000	       -0.0000000000	       -0.0000000000	        0.0000000000	
        0.6170000000	      -25.8210917162	      796.0415823896	      114.0125779188	        0.2000000000	        0.0000000000	       -0.9030000000	      -50.0102749585	      -12.5819337289	       48.3175949962	        0.0796012601	        0.0000000000	       -0.7178108848	        0.2000000000	        0.0000000000	       -0.3000000000	       -0.0431348446	       -0.0561654757	        0.0580730256	       -0.0000000000	        0.0000000000	        0.0000000000	        0.2000000000	       -0.0000000000	        0.3030000000	       -0.0000000000	       -0.0000000000	        0.0000000000	
        0.6180000000	      -25.6951556623	      795.7114692095	      115.0789559334	        0.2000000000	        0.0000000000	       -0.9030000000	      -50.2104507217	      -12.6289152160	       48.2781116361	        0.0994602684	        0.0000000000	       -0.7833424843	        0.2000000000	        0.0000000000	       -0.3000000000	       -0.0458673974	       -0.0574957258	        0.0608114679	       -0.0000000000	        0.0000000000	        0.0000000000	        0.2000000000	       -0.0000000000	        0.3030000000	       -0.0000000000	       -0.0000000000	        0.0000000000	
        0.6190000000	      -25.5554967124	      795.3194829015	      116.1515909130	        0.2000000000	        0.0000000000	       -0.9030000000	      -50.4021370680	      -12.6775637665	       48.2345536827	        0.1195364650	        0.0000000000	       -0.8075587109	        0.2000000000	        0.0000000000	       -0.3000000000	       -0.0456578399	       -0.0541460647	        0.0592305051	       -0.0000000000	        0.0000000000	        0.0000000000	        0.2000000000	       -0.0000000000	        0.3030000000	       -0.0000000000	       -0.0000000000	        0.0000000000	
        0.6200000000	      -25.4030283471	      794.8675760975	      117.2290095239	        0.2000000000	        0.0000000000	       -0.9030000000	      -50.5857472173	      -12.7281263545	       48.1867824255	        0.1380786441	        0.0000000000	       -0.7686622577	        0.2000000000	        0.0000000000	       -0.3000000000	       -0.0411325702	       -0.0442101092	        0.0514310983	       -0.0000000000	        0.0000000000	        0.0000000000	        0.2000000000	       -0.0000000000	        0.3030000000	       -0.0000000000	       -0.0000000000	        0.0000000000	
        0.6210000000	      -25.2380730624	      794.3545229326	      118.3083510694	        0.2000000000	        0.0000000000	       -0.9030000000	      -50.7617544224	      -12.7806824576	       48.1343466556	        0.1526481504	        0.0000000000	       -0.6403642378	        0.2000000000	        0.0000000000	       -0.3000000000	       -0.0306662038	       -0.0254871340	        0.0351893726	       -0.0000000000	        0.0000000000	        0.0000000000	        0.2000000000	       -0.0000000000	        0.3030000000	       -0.0000000000	       -0.0000000000	        0.0000000000	
        0.6220000000	      -25.0603538532	      793.7760828409	      119.3865978451	        0.2000000000	        0.0000000000	       -0.9030000000	      -50.9302390463	      -12.8351442898	       48.0764735900	        0.1600186125	        0.0000000000	       -0.3921854027	        0.2000000000	        0.0000000000	       -0.3000000000	       -0.0124124708	        0.0044540483	        0.0080081973	       -0.0000000000	        0.0000000000	        0.0000000000	        0.2000000000	       -0.0000000000	        0.3030000000	       -0.0000000000	       -0.0000000000	        0.0000000000	
        0.6230000000	      -24.8695814823	      793.1265091970	      120.4612116630	        0.2000000000	        0.0000000000	       -0.9030000000	      -51.0910420911	      -12.8913208224	       48.0122748358	        0.1561009507	        0.0000000000	        0.0097130479	        0.2000000000	        0.0000000000	       -0.3000000000	        0.0156298611	        0.0481596813	       -0.0327815785	       -0.0000000000	        0.0000000000	        0.0000000000	        0.2000000000	       -0.0000000000	        0.3030000000	       -0.0000000000	       -0.0000000000	        0.0000000000	
        0.6240000000	      -24.6659008175	      792.3997041770	      121.5303763184	        0.2000000000	        0.0000000000	       -0.9030000000	      -51.2442997360	      -12.9489835508	       47.9408843697	        0.1359125497	        1.2255509959	        0.6009950503	        0.2000000000	        0.0000000000	       -0.3000000000	        0.0555055396	        0.1081103931	       -0.0898560741	       -0.0000000000	        0.0000000000	        0.0000000000	        0.2000000000	       -0.0000000000	        0.3030000000	       -0.0000000000	       -0.0000000000	        0.0000000000	
